<svg xmlns="http://www.w3.org/2000/svg" viewBox="0 0 100 100">
  <rect width="100" height="100" rx="22" fill="#0D29B2"/>
  <g transform="translate(31 28) scale(1.9)">
    <path d="M2.1 0.18H12.78V3.72H4.5C3.75 3.72 3.57 4.2 3.57 4.62V7.5C3.57 7.86 3.75 8.01 4.08 8.01H10.38C15.12 8.01 16.89 11.28 16.89 14.37C16.89 17.61 14.94 20.43 10.38 20.43H0V16.89H10.53C12.45 16.89 13.32 15.66 13.32 14.19C13.32 12.78 12.51 11.4 10.5 11.4H3.21C0.99 11.4 0.03 10.47 0.03 8.19V2.01C0.03 0.93 0.69 0.18 2.1 0.18Z" fill="#fff"/>
  </g>
</svg>
